<svg width="280" height="237" xmlns="http://www.w3.org/2000/svg"><g fill="none" fill-rule="evenodd"><path d="M12.949 126.066c.037 3.884.527 7.802 1.95 11.44 2.78 7.63 7.869 14.568 14.837 18.879 3.517 2.032 7.457 3.391 11.501 3.838 3.957.262 8.017-.333 11.66-1.926 1.88-.805 3.5-2.2 4.426-4.034 2.38-4.542 5.773-8.444 9.12-12.286 3.837-4.288 8.065-8.211 12.192-12.21.956-.958 2.035-1.794 2.97-2.756l.007-.173c.353.146.83-.637 1.142-.82 1.877-1.788 3.866-3.456 5.792-5.187.41-.32.451-.899.395-1.322.214.3.14.99-.218 1.277-1.827 1.716-3.783 3.298-5.598 5.032-.547.582-1.29 1.024-1.712 1.696v.053c-.201-.034-.47.161-.603.32-3.853 3.529-7.573 7.2-11.261 10.899-3.712 3.854-7.24 7.91-10.267 12.328-1.455 2.253-2.62 4.676-3.993 6.98-3.446 6.122-6.613 12.483-8.45 19.29-.435 1.718-.732 3.483-.71 5.26.041 2.74.901 5.579 2.808 7.607 1.788 1.867 4.478 2.533 6.996 2.478a7.84 7.84 0 0 0 3.503-.62c2.305-.792 4.01-2.71 5.209-4.758.29-.628.696-1.196 1.006-1.808.158-.562-.556-.766-.981-.76-1.552-.008-3.084.535-4.635.34-.685-.149-.613-1.02-.576-1.554.278-2.499.89-4.963 1.895-7.28 1.498-3.799 3.28-7.493 5.43-10.965 2.399-3.937 4.831-7.848 7.624-11.525 2.373-3.195 4.56-6.527 7.102-9.59a.836.836 0 0 0 .233-.474c.33-.054.723-.7.987-.874 1.688-1.586 3.209-3.496 5.358-4.482 1.026-.35 2.304-.54 3.256.089 1.19 1.148.88 2.994.547 4.436-1.263 4.699-3.588 9.043-5.545 13.503-1.53 3.505-3.294 6.91-4.936 10.357v.416c-.233-.005-.497.42-.542.686a52.74 52.74 0 0 1-3.614 6.834c-1.91 3.156-3.821 6.314-6.238 9.115-.528.654-1.389.817-2.186.813-.978.096-2.114.133-2.857.859-.305.441-.168 1.031-.324 1.53a10.009 10.009 0 0 0-.156 1.871c-.024.951.254 1.947 1.01 2.577 1.347 1.222 3.229 1.736 5.025 1.62 2.001-.052 3.902-.8 5.737-1.531 1.867-.78 3.56-2.025 4.69-3.718 1.066-1.473 2.14-2.962 3.053-4.527a.393.393 0 0 0-.016-.154c.572-.352.789-1.12 1.213-1.642 2.913-4.582 5.33-9.467 7.395-14.48 1.297-3.543 3.052-6.865 4.571-10.318 1.49-3.464 2.223-7.236 4.133-10.505.862-1.494 2.709-2.618 4.448-2.063.148.02.611.355.281.316-.507-.397-1.235-.498-1.831-.3-.11.595.113 1.246.065 1.87.254 5.915-.012 11.898-1.587 17.609-1.298 5.149-3.546 10.015-5.98 14.72a24.132 24.132 0 0 1-2.887 4.372c-.001.039.01.064.015.096-.44.066-.758.644-1.132.736.675-.663 1.48-1.312 2-2.133.11-.46-.471-.434-.752-.316-3.17.65-6.345 1.294-9.5 2.018-.098.082-.198.15-.18.292.244 1.64.408 3.38 1.299 4.82.833 1.208 2.248 1.844 3.572 2.37 2.02.69 4.207.748 6.316.562 2.558-.395 4.859-1.87 6.473-3.863 1.023-1.246 1.965-2.577 2.724-3.998a.38.38 0 0 0-.05-.196l.102-.003c.553-.643.847-1.551 1.287-2.305 2.812-5.71 5.29-11.601 7.067-17.718a69.798 69.798 0 0 0 2.938-13.967c.047-.431.021-.917.132-1.307.173.208-.04.7-.009.999-.35 3.864-1.122 7.73-2.11 11.453-1.302 4.475-2.7 8.928-4.548 13.215-.634 1.16-.29 2.519-.41 3.783-.064 1.862-.145 3.827-1.096 5.487a.47.47 0 0 0 .027.188l-.05.001c-.208-.01-.503.712-.52.425 1.352-1.767 1.53-4.073 1.577-6.214-.031-.452.124-.953-.066-1.376-.45-.324-.605.374-.758.66a107.8 107.8 0 0 1-3.763 7.559.908.908 0 0 0-.075.374c.108.605.73.938 1.173 1.3 2.179 1.34 4.846 1.78 7.371 1.52 1.06-.138 2.138-.528 2.934-1.252.368-.657.258-1.468.404-2.189.035-.22.087-.561-.023-.755.308-.387.16-1.05.306-1.527 1.35-8.688 3.48-17.298 6.579-25.539 1.437-3.786 3.133-7.491 5.18-10.982.048.416-.488.949-.673 1.412-4.75 8.634-7.56 18.178-9.639 27.76-.552 2.861-1.232 5.716-1.483 8.622.037.749 1.087.29 1.575.416 2.617-.028 5.258.057 7.86-.043.392-.407.248-1.168.426-1.706.737-4.41 1.998-8.723 3.26-12.998 1.819-5.904 4.093-11.718 7.332-16.996-.008-.071-.012-.143-.02-.214.269-.105.539-.665.689-.882 2.083-3.125 4.134-6.29 6.525-9.193 2.444-2.689 5.372-4.882 7.933-7.456 3.862-3.737 7.397-7.8 10.789-11.96.195-.611-.688-.53-1.05-.672-.958-.222-1.959-.32-2.887-.644 3.005.563 6.015 1.102 9.049 1.495 6.506.963 12.942 2.634 19.555 2.746 4.8.143 9.62.361 14.414-.039 5.775-.818 11.515-2.02 17.004-4.017 5.561-1.988 11.095-4.152 16.26-7.034 5.249-2.977 9.133-7.772 12.327-12.783 3.23-5.02 5.978-10.341 8.383-15.798 2.741-6.611 5.115-13.372 7.286-20.19 2.746-9.104 5.148-18.307 7.633-27.485 1.277-4.791 2.523-9.623 2.887-14.585.24-3.32.052-6.652.072-9.977.128 1.58.086 3.33.146 4.975.072.761-.08 1.573.136 2.3.593.233.653-.7.937-1.037 1.647-3.53 2.752-7.297 3.596-11.091.044-.707.51-1.527.098-2.185-.772-.51-1.777-.543-2.653-.799-3.595-.732-7.256-1.157-10.929-1.087-5.64-.02-11.268.506-16.866 1.157-7.695.98-15.137 3.266-22.564 5.414-9.64 2.89-19.092 6.345-28.614 9.585-6.074 2.187-12.184 4.355-17.961 7.254-5.554 3.05-10.71 6.762-15.81 10.5-5.447 4.01-10.632 8.373-15.429 13.14-3.895 3.833-7.702 7.785-11.284 11.897l-.002.226c-.353-.136-.795.703-1.077.919-5.111 5.594-9.863 11.496-14.726 17.3-.946 1.229-2.032 2.375-2.833 3.7-.055.583.43 1.075.43 1.671.369 2.163.194 4.415-.71 6.423-1.86 4.45-4.595 8.594-8.255 11.775-2.489 2.26-5.204 4.355-8.404 5.48a11.48 11.48 0 0 1-6.161.682c-.556.163-.585.948-.967 1.347-1.294 1.862-2.931 3.63-5.113 4.43-1.408.541-2.788 1.173-3.957 2.144-1.487 1.118-2.991 2.26-4.318 3.547-.01.107-.01.215-.018.322-.209-.132-.577.046-.72.288-5.95 5.383-11.79 10.893-17.979 16.01-2.361 2.01-4.742 4.047-7.479 5.532-3.82 2.248-7.858 4.61-12.41 4.676-3.16.01-6.46-.366-9.178-2.14-1.681-1.48-3.284-3.082-4.62-4.883-2.631-3.64-3.988-8.026-5.106-12.32-.728-2.89-1.193-5.848-1.114-8.826-.074-4.008.665-7.979 1.515-11.89 1.497-6.448 4.116-12.588 6.884-18.59 1.969-4.094 4.504-7.932 7.701-11.184 2.021-2.002 4.898-2.59 7.484-3.524 7.724-2.656 15.334-6.142 21.563-11.509 4.922-4.503 8.025-10.643 9.995-16.93 1.2-4.018 2.38-8.188 2.022-12.423.016-.508-.326-1.155-.925-.978-1.887.233-3.327 1.637-5.16 2.043-4.805 1.38-9.735 2.459-14.323 4.506-3.972 1.736-7.886 3.645-11.568 5.938-2.784 1.885-5.16 4.323-7.3 6.898-2.102 2.55-3.513 5.578-4.507 8.708-.785 2.2-1.482 4.442-1.725 6.774-.188 1.887-1.597 3.292-2.725 4.691-3.376 3.867-6.47 8.006-8.928 12.517-1.748 3.696-3.31 7.482-4.806 11.285-2.46 6.53-3.91 13.404-4.586 20.34-.3 2.768-.53 5.55-.502 8.337zM38.69 67.675c-.049-1.441 1.28-2.664 2.708-2.568 1.52-.023 2.833 1.411 2.619 2.926-.126 1.428-1.547 2.624-2.995 2.36-1.363-.096-2.409-1.376-2.332-2.718zm1.184-8.755c-.05-1.55 1.666-2.785 3.125-2.24 1.565.414 2.2 2.545 1.127 3.746-.984 1.31-3.259 1.108-3.97-.37a2.42 2.42 0 0 1-.282-1.136zm3.07 12.94c-.003-1.388 1.384-2.571 2.768-2.315 1.654.057 2.674 2.016 1.985 3.458-.652 1.723-3.293 1.94-4.299.44-.364-.443-.483-1.023-.454-1.583zm1.71-9.386c-.105-1.747 2.058-2.963 3.525-2.058 1.452.73 1.633 2.956.339 3.92-1.148.991-3.155.517-3.682-.914a2.47 2.47 0 0 1-.183-.948zm.885-9.066c-.068-1.624 2.156-2.522 3.294-1.413 1.167.983.635 3.158-.908 3.395-1.26.276-2.443-.687-2.386-1.982zM49.06 66.8c-.019-1.533 1.658-2.727 3.092-2.21 1.093.29 1.77 1.415 1.659 2.517-.125 1.256-1.394 2.327-2.683 2.06-1.187-.057-2.105-1.216-2.067-2.367zm1.095-9.412c-.045-1.315 1.155-2.467 2.442-2.406 1.566-.046 2.89 1.707 2.246 3.178-.454 1.584-2.638 2.14-3.838 1.044a2.424 2.424 0 0 1-.85-1.816zm.61-8.917c.015-1.703 2.283-2.695 3.572-1.608 1.212.915 1.076 3.057-.34 3.686-1.154.62-2.775.03-3.113-1.27a2.326 2.326 0 0 1-.12-.808zm3.558 12.831c.012-1.34 1.294-2.572 2.669-2.294 1.21.04 2.197 1.247 2.01 2.439.1 1.68-2.082 2.782-3.458 1.896-.72-.407-1.217-1.211-1.221-2.041zm.95-8.667c.023-1 .827-1.925 1.767-2.197 1.372-.365 2.905.636 3.016 2.065.314 1.813-1.957 3.304-3.52 2.344-.81-.415-1.33-1.301-1.262-2.212zm1.095-8.028c-.06-1.378 1.848-2.2 2.82-1.2 1.013.86.472 2.753-.889 2.83-1.032.199-1.924-.604-1.93-1.63zm2.561 20.782c-.065-1.499 1.679-2.689 3.04-2.014 1.509.607 1.748 3.004.27 3.802-1.365.99-3.336-.165-3.31-1.788zm1.254-8.688c-.065-1.385 1.438-2.505 2.751-2.042 1.078.263 1.698 1.435 1.438 2.489-.25 1.636-2.598 2.199-3.642.964a2.126 2.126 0 0 1-.547-1.411zm.388-7.945c-.06-1.41 1.704-2.39 2.908-1.648 1.328.663 1.271 2.836-.087 3.448-1.149.627-2.867-.224-2.814-1.6-.001-.067-.008-.133-.007-.2zm3.835 11.928c-.024-1.372 1.554-2.454 2.811-1.807 1.22.457 1.58 2.149.73 3.106-.67.896-2.04.956-2.87.24-.467-.345-.678-.978-.671-1.54zm.246-16.149c-.009-1.61 1.984-2.685 3.335-1.836 1.363.75 1.447 2.949.071 3.749-1.405 1.016-3.465-.253-3.406-1.913zm.44 8.066c-.032-1.38 1.483-2.391 2.772-1.964 1.401.404 1.934 2.325.961 3.396-1.024 1.272-3.467.803-3.695-.914a2.412 2.412 0 0 1-.038-.518zm4.064 2.836c-.077-1.336 1.643-2.3 2.744-1.49 1.388.744.944 3.227-.697 3.278-1.051.181-2.152-.696-2.047-1.788zm.137-6.952c.024-1.495 1.796-2.578 3.14-1.886 1.387.59 1.657 2.675.447 3.589-1.067.988-3.055.486-3.462-.937a1.92 1.92 0 0 1-.125-.766zm.127-7.907c-.012-1.535 1.839-2.613 3.169-1.821 1.301.622 1.499 2.653.35 3.51-1.341 1.267-3.617.082-3.519-1.689zm3.882 3.463c-.119-1.508 1.753-2.556 3.024-1.808 1.33.658 1.448 2.76.175 3.542-1.097.786-2.869.181-3.137-1.172a2.447 2.447 0 0 1-.062-.562zm1.642-5.282c.01-1.245 1.613-2.149 2.704-1.505 1.267.54 1.532 2.447.383 3.265-1.013.873-2.92.311-3.058-1.08-.008-.127-.008-.283-.01-.427a1.474 1.474 0 0 1-.019-.253zm42.233 86.443c-.026-1.895.341-3.794 1.184-5.509 1.173-2.47 2.618-4.842 4.423-6.904 3.538-3.69 8.392-5.837 13.333-6.912.574-.182 1.23-.182 1.742-.497v-.002c.172.071.407.047.59-.043 2.573-.316 5.263-.258 7.718.687 3.058 1.139 6.093 3.124 7.697 6.076 1.233 2.433.96 5.26.701 7.876-.623 4.32-2.963 8.2-5.663 11.552-2.342 2.852-5.817 4.406-9.172 5.74-.703.318-1.521.397-2.176.782l-.001.105c-.39-.25-.98.144-1.424.137-2.152.32-4.403.363-6.58.054-3.178-.65-6.115-2.286-8.3-4.69-1.462-1.487-3.127-2.985-3.622-5.083a14.462 14.462 0 0 1-.45-3.37zm.736-40.92c.043.564.775.715 1.07.09 12.549-15.216 25.092-30.685 40.489-43.173 6.475-5.152 13.262-9.991 20.467-14.06 8.296-4.115 17.146-6.966 25.867-10.027 13.355-4.514 26.72-9.34 40.619-11.86 5.526-.97 11.183-1.176 16.73-1.662.344-.875-1.202-.675-1.717-.907a128.807 128.807 0 0 0-23.815-1.82c-10.385.37-20.674 1.971-30.836 4.077-9.471 1.686-18.883 3.689-28.252 5.865-8.308 2.507-16.313 5.966-24.066 9.84-8.175 4.002-14.08 11.268-19.02 18.686-4.418 6.318-8.555 12.88-11.468 20.04-2.738 5.97-4.76 12.284-5.499 18.824-.245 1.931-.532 3.87-.542 5.82a.809.809 0 0 0-.027.267zm11.597 88.406c1.237 1.341 2.715 2.708 4.632 2.864 2.584.36 5.38-.383 7.174-2.342 2.246-2.152 3.147-5.485 2.502-8.498-.958-4.523-2.51-8.894-3.807-13.327-.25-.464-.17-1.398-.826-1.511-.606.344-.82 1.14-1.235 1.678-2.103 3.482-3.845 7.176-5.276 10.98.455 2.758 1.896 5.242 2.703 7.903-.219-.229-.285-.973-.83-.838-1.528.442-3.09.853-4.575 1.39-.254.458-.457 1.166-.462 1.7zm35.523-67.778a.387.387 0 0 1 .047-.084c4.8-4.077 9.888-7.836 14.904-11.662 5.076-3.89 10.07-7.885 15.192-11.716 6.701-5.136 13.532-10.116 20.005-15.541 4.457-3.874 8.745-7.936 13.178-11.837 8.146-7.296 16.229-14.667 23.999-22.362 4.325-4.194 8.984-8.039 13.324-12.222.377-.286.78-.828 1.153-.964-3.57 3.504-7.342 6.8-11.072 10.135-5.222 4.855-10.193 9.97-15.489 14.748-7.717 7.14-15.62 14.082-23.383 21.177-6.072 5.282-12.593 10.018-18.97 14.922-5.702 4.284-11.33 8.664-16.953 13.049-5.21 3.955-10.458 7.866-15.479 12.063-.075.054-.496.416-.456.294z" fill="#EC407A" fill-rule="nonzero"/><path d="M116.773 191.62c.084 8.566 2.4 17.03 6.114 24.719 2.518 4.82 5.9 9.244 10.07 12.759 3.046 2.295 6.695 3.622 10.275 4.844 5.435 1.762 11.311 2.366 16.931 1.156 7.43-1.517 13.799-5.904 20.138-9.817 2.402-1.575 4.97-3.01 7.806-3.535 3.656-.824 7.326-1.81 10.594-3.705 4.584-2.281 8.066-6.212 10.88-10.392 2.814-4.586 4.989-9.528 7.238-14.405 1.063-2.627 2.362-5.313 2.421-8.195.016-.78-.898-.62-1.346-.317-3.26 1.476-6.835 1.998-10.217 3.14-5.302 1.679-10.656 3.484-15.4 6.44-5.342 3.544-9.041 9.238-10.636 15.392-.784 3.103-1.81 6.458-4.536 8.432-4.517 3.517-9.87 5.892-15.308 7.645-5.324 1.656-10.99 1.926-16.524 1.522-2.018-.058-3.876-1.028-5.4-2.33-3.927-3.334-7.824-7.04-9.843-11.878-2.941-6.586-2.949-13.935-3.25-20.992-.026-2.956-.098-5.926.238-8.858-.448-.6-1.426-.233-2.077-.363-2.459.028-4.955-.066-7.39.089-.539 1.422-.444 3.125-.626 4.668-.085 1.325-.16 2.653-.152 3.982z" fill="#EC407A" fill-rule="nonzero"/><path d="M46.845 144.796c.035 1.083-.008 2.187.238 3.249.076.336.469.321.716.19 2.714-.92 5.165-2.43 7.625-3.866.316-.242-.019-.57-.293-.644-.588-.276-.87-.963-.785-1.584.047-.837.948-1.465 1.76-1.31.788.072 1.363.843 1.324 1.613-.044.316.337.555.574.305.375-.276.78-.521 1.118-.843.142-.375-.272-.655-.364-1-.38-.9-.63-1.934-.265-2.883.086-.377.355-.705.388-1.09-.097-.351-.508-.224-.702-.053-.704.436-1.747.068-1.967-.744-.318-.821.353-1.808 1.243-1.791.715-.04 1.362.548 1.413 1.255-.045.29.197.74.51.475.778-1.464 1.342-3.094 1.402-4.767.024-.766-.266-1.541-.86-2.043-.84-.912-2.186-1.18-3.367-.92-1.944.432-3.51 1.794-4.837 3.208-2.773 3.023-4.476 6.989-4.828 11.065a31.942 31.942 0 0 0-.043 2.178zm1.964-2.059c-.01-.872.675-1.675 1.547-1.783 1.105-.247 2.252.738 2.177 1.862 0 1.068-1.047 1.967-2.105 1.805-.936-.093-1.663-.95-1.62-1.884zm.247 17.2c.446 1.491 1.228 2.849 1.894 4.247.15.226.188.627.518.648.322-.087.35-.49.522-.73a220.5 220.5 0 0 1 1.246-2.429c.072-.336-.323-.421-.555-.516-.63-.282-.996-.995-.888-1.67.08-.228-.062-.551-.34-.49-.738.218-1.468.446-2.212.627-.135.05-.189.177-.185.313zM51.1 134.54c-.004-1.117 1.096-2.08 2.207-1.885.99.113 1.802 1.068 1.674 2.069-.014 1.23-1.45 2.157-2.588 1.681-.779-.266-1.307-1.05-1.293-1.865zm2.837 23.551c.025.26.335.28.477.457.165.214.51.194.598-.08.197-.382.466-.737.615-1.136.07-.29-.325-.436-.513-.24-.35.27-.74.485-1.085.76a.321.321 0 0 0-.092.24zm22.703 5.29c.161.39.638.132.935.1 1.982-.452 3.979-.875 5.947-1.362.313-.248.387-.707.597-1.043.71-1.529 1.454-3.045 2.084-4.607.016-.424-.569-.394-.698-.75-.531-.775-.128-1.956.77-2.242.336-.169.715-.097 1.033.063.41.038.426-.517.61-.776.821-1.786 1.67-3.566 2.384-5.398.064-.345-.362-.435-.578-.243-.912.596-2.253.138-2.65-.86-.132-.417-.1-.884-.032-1.31.275-.777 1.122-1.32 1.946-1.189.784.035 1.366.698 1.616 1.391.145.303.602.156.602-.157.432-1.48 1.02-2.984.918-4.553-.054-.908-.482-1.963-1.45-2.208-.79-.118-1.621-.098-2.39.129-1.433.545-2.514 1.687-3.626 2.694-1.147 1.113-2.279 2.254-3.298 3.482-.14.326.258.506.526.449.485-.01 1.004-.041 1.409.278.989.596 1.233 2.1.436 2.95-.66.844-2.007.923-2.801.224-.524-.401-.708-1.072-.738-1.703-.095-.393-.569-.224-.667.08-.724.99-1.482 1.963-2.108 3.018-.058.474.166.943.193 1.42.27 2.2.135 4.45.062 6.675-.041 1.553-.337 3.087-.81 4.565-.056.295-.228.583-.222.883zm2.619-8.122c.003-1.061 1.09-1.974 2.141-1.756.879.149 1.59.986 1.504 1.89.004 1-.962 1.818-1.947 1.724-.94-.057-1.75-.907-1.698-1.858zm21.157-4.56l.002.017c.34 2.027.804 4.026.765 6.082.01.904-.101 1.796-.093 2.7.136.41.62.168.925.163.798-.141 1.625-.185 2.401-.427.344-.214.23-.703.33-1.042 0-.317.236-.811-.155-.985-.355-.064-.59.342-.955.314-.665.089-1.33-.5-1.239-1.184-.037-.481.376-.906.807-1.046.449-.088.947.019 1.226.405.158.298.633.22.611-.141.183-1.811.223-3.637.251-5.456.071-.38-.538-.495-.586-.105-.111.808-1.014 1.355-1.783 1.077-.664-.168-1.021-.869-.926-1.517.083-1.01 1.478-1.515 2.216-.835.286.226.432.564.54.898.233.287.607-.019.535-.323-.002-1.606.002-3.221-.224-4.814-.128-.39-.545-.165-.783-.033-1.366.697-2.147 2.108-2.797 3.43-.393.91-.817 1.819-1.066 2.778l-.002.044z" fill="#D81B60" fill-rule="nonzero"/><path d="M16.26 103.19a72.386 72.386 0 0 1 2.267-3.82 51.853 51.853 0 0 1 3.021-4.304c1.245-1.58 2.606-3.064 3.993-4.52 1.586-1.666 3.21-3.3 4.964-4.789 1.13-.96 2.318-1.86 3.615-2.583.76-.423 1.554-.783 2.374-1.076l1.888-2.045" stroke="#D81B60"/><path d="M16.793 101.21c.299.448.651-.083.798-.365 1.776-2.908 3.735-5.728 6.043-8.238 2.917-3.161 5.85-6.374 9.443-8.788 1.065-.733 2.27-1.263 3.458-1.792 1.493-1.718 3.018-3.557 5.18-4.461 2.435-1.043 5.033-1.686 7.507-2.655 6.687-2.547 13.228-5.764 18.69-10.444 2.866-2.472 4.945-5.697 6.794-8.96 1.891-3.516 3.118-7.343 4.203-11.17.637-2.464 1.13-4.987 1.212-7.534-.047-.872.101-1.854-.384-2.628-.422-.382-1.057-.07-1.539.02-1.402.433-2.552 1.404-3.981 1.774-3.774 1.118-7.632 1.96-11.338 3.303-4.68 1.655-9.122 3.911-13.436 6.348-3.225 1.825-5.895 4.458-8.3 7.238-2.15 2.498-3.69 5.466-4.707 8.586-.797 2.301-1.672 4.609-1.888 7.054a5.863 5.863 0 0 1-1.319 3.262c-1.9 2.426-4.08 4.714-5.868 7.264-2.164 3.066-4.36 6.167-5.753 9.675-1.707 4.084-3.572 8.12-4.83 12.371l.009.076.006.064zm21.948-33.461c-.193-1.704 1.762-3.07 3.335-2.548 1.483.37 2.33 2.138 1.755 3.535-.536 1.544-2.648 2.19-3.97 1.232-.722-.49-1.223-1.33-1.12-2.22zm1.168-8.954c.024-1.469 1.637-2.584 3.027-2.138 1.04.313 1.808 1.362 1.682 2.459-.034 1.392-1.512 2.469-2.857 2.125-1.14-.2-1.935-1.305-1.852-2.446zm3.029 13.126c-.024-1.462 1.5-2.696 2.93-2.362 1.347.17 2.268 1.616 1.976 2.913-.187 1.247-1.486 2.143-2.722 1.955-1.257-.057-2.206-1.299-2.184-2.506zm1.756-9.424c-.155-1.447 1.394-2.634 2.77-2.32 1.128.183 2.013 1.283 1.873 2.428.072 1.56-1.809 2.708-3.204 2.071-.852-.35-1.55-1.224-1.439-2.18zm.853-9.096c-.033-1.231 1.324-2.187 2.48-1.799 1.25.252 1.827 1.841 1.16 2.882-.668 1.245-2.704 1.232-3.385.004a2.014 2.014 0 0 1-.255-1.086zm3.56 13.43c-.13-1.589 1.743-2.825 3.174-2.177 1.022.373 1.693 1.488 1.47 2.566-.136 1.457-1.906 2.415-3.22 1.799-.854-.349-1.508-1.243-1.425-2.188zm1.066-9.492c-.019-1.426 1.432-2.61 2.827-2.328 1.427.235 2.406 1.9 1.802 3.24-.473 1.308-2.175 1.933-3.38 1.227-.767-.415-1.272-1.267-1.25-2.14zm.63-8.728c-.08-.961.688-1.845 1.574-2.123.755-.11 1.61-.035 2.15.568.97.906.807 2.675-.343 3.36-.877.593-2.205.456-2.875-.394-.359-.379-.514-.897-.505-1.41zm3.58 12.67c-.096-1.29 1.189-2.456 2.468-2.268 1.287-.036 2.317 1.255 2.18 2.496-.05 1.473-1.738 2.516-3.1 2.003-.91-.327-1.625-1.242-1.547-2.232zm.902-8.633c.026-1.262 1.237-2.415 2.52-2.233 1.247-.04 2.319 1.176 2.226 2.402.067 1.366-1.378 2.497-2.679 2.273-1.183-.097-2.14-1.273-2.067-2.442zm1.123-8.057c-.042-1.018 1.064-1.863 2.043-1.565 1.197.223 1.675 1.885.81 2.73-.957 1.095-2.979.322-2.853-1.165zm2.555 20.76c-.091-1.207 1.108-2.25 2.292-2.108 1.066.01 1.993 1.02 1.97 2.074.153 1.3-1.228 2.406-2.471 2.166-.999-.13-1.87-1.113-1.79-2.133zm1.24-8.74c-.021-1.281 1.31-2.321 2.553-1.993 1.412.248 2.187 2.123 1.29 3.264-.743 1.173-2.651 1.199-3.425.046a2.17 2.17 0 0 1-.418-1.317zm.352-7.926c.051-1.26 1.51-2.185 2.671-1.66 1.182.427 1.612 2.068.792 3.019-.637.797-1.879.935-2.69.317-.523-.38-.812-1.037-.773-1.676zm3.9 12.025c-.172-1.395 1.544-2.428 2.758-1.826 1.211.487 1.625 2.26.667 3.184-.889.992-2.714.763-3.27-.467-.172-.267-.152-.588-.155-.891zm.227-16.092c-.035-1.142.93-2.173 2.079-2.215 1.336-.086 2.552 1.233 2.258 2.56-.16 1.232-1.508 2.083-2.693 1.734-.942-.221-1.668-1.103-1.644-2.079zm.407 7.996c-.016-1.34 1.453-2.419 2.724-1.96 1.19.32 1.833 1.76 1.32 2.868-.322.788-1.167 1.318-2.024 1.2-1.132.113-2.082-1.032-2.02-2.108zm4.101 2.72c-.039-1.257 1.58-2.079 2.627-1.44 1.084.563 1.252 2.293.218 2.991-.986.826-2.797.144-2.838-1.175-.01-.125-.009-.25-.007-.376zm.13-6.839c.017-1.132 1.054-2.194 2.22-2.051 1.124-.071 2.125.966 2.068 2.076.157 1.434-1.498 2.588-2.818 2.062-.863-.299-1.513-1.162-1.47-2.087zm.134-7.849c-.066-.943.667-1.799 1.536-2.07.77-.138 1.631.015 2.15.641 1.014 1.023.55 3.02-.857 3.423-1.341.502-2.91-.523-2.83-1.994zm3.858 3.275c-.018-1.082 1.04-2.013 2.117-1.875 1.32-.072 2.358 1.48 1.854 2.688-.368 1.21-1.944 1.746-3 1.073-.702-.355-1.03-1.125-.971-1.886zm1.56-5.008c.064-1.149 1.259-2.099 2.393-1.784 1.033.191 1.716 1.316 1.423 2.326-.176.886-1.07 1.539-1.954 1.45-1.014.023-1.924-.993-1.862-1.992z" stroke="#D81B60" stroke-width=".078" fill="#D81B60" fill-rule="nonzero"/><path d="M94.008 106.406c.05 1.853.942 4.23 3.12 4.313 4.444.81 9.346-2.688 9.4-7.315.335-3.642-2.112-7.188-5.601-8.262-1.234-.686-1.99.78-2.609 1.582-1.978 2.876-4.298 6.04-4.31 9.682zm23.542 19.735c0 2.62 1.625 4.974 3.446 6.725 3.49 2.475 8.854 1.437 11.173-2.163 2.874-3.84 1.003-9.965-3.384-11.78-3.95-1.89-9.129.147-10.725 4.217-.379.95-.517 1.984-.51 3.001z" stroke="#D81B60" stroke-width=".221" fill="#8E24AA" fill-rule="nonzero"/><path d="M1.639 190.642c2.707.212 5.458.394 8.145.532.346-.722.02-1.746.023-2.588-.198-1.013-.23-2.363-1.16-3-1.082.112-1.896 1.071-2.828 1.564-1.444 1.034-2.985 1.967-4.347 3.099-.051.19.012.29.166.393zM22.191 176.235c1.536 5.239 3.241 10.44 4.903 15.636.478.742 1.483-.06 2.157-.004 5.91-1.176 11.864-2.187 17.75-3.446.524-.554-.275-1.285-.36-1.898-.731-2.216-.48-4.615-.397-6.936.511-3.147 1.753-6.112 2.755-9.122-.189-.726-1.16-.058-1.662-.079-8.328 1.822-16.66 3.633-24.961 5.566-.054.1-.226.135-.185.283zm37.37 8c.047.493.57.739 1.08.54 3.157-.163 6.34-.06 9.476-.465 1.231-.615 1.883-1.98 2.735-3.006 3.6-5.119 6.683-10.587 9.277-16.278.252-.792 1.072-1.527.94-2.384-.573-.466-1.407.19-2.06.176-4.82 1.063-9.633 2.166-14.449 3.253-1.545 2.287-2.73 4.868-3.894 7.39-1.474 3.357-2.93 6.839-3.096 10.547a.836.836 0 0 0-.01.226zm26.322-1.714c.287.664 1.208-.035 1.721.02 2.825-.63 5.701-1.126 8.487-1.879 1.446-1.797 2.284-4.011 3.328-6.054 1.927-3.997 3.523-8.156 4.5-12.49.086-.82.696-1.772.27-2.556-.741-.243-1.582.246-2.359.24-1.742.314-3.564.438-5.266.857-1.95 3.46-2.999 7.388-4.838 10.926a123.501 123.501 0 0 1-5.828 10.77.479.479 0 0 0-.015.166zm44.325-12.301c.2.809 1.193.057 1.677.018.895-.367 2.007-.389 2.781-.973.069-.948-.65-1.818-.89-2.724-.428-.863-.58-1.874-1.055-2.695-.698-.294-.7.854-.938 1.253-.54 1.698-1.19 3.382-1.575 5.12zm9.361-20.673c-.016.16.083.35.141.502 1.39 4.61 2.994 9.167 4.064 13.865.263.91.223 1.887.445 2.788.714.293 1.575-.364 2.337-.43 23.987-6.688 47.989-13.334 71.953-20.097.919-.507.581-1.819.786-2.67.432-3.487-.438-6.964-1.8-10.156-.701-1.535-1.197-3.234-2.326-4.524-.956-.132-1.962.485-2.937.638l-72.474 19.849c-.127.055-.179.14-.189.235z" stroke="#D81B60" stroke-width=".156" fill="#8E24AA" fill-rule="nonzero"/><path d="M100.208 94.592c.07.37.523.255.778.4 2.597.782 4.7 2.94 5.447 5.537.354 1.15.379 2.367.225 3.557-.244 1.526-.94 2.953-1.912 4.15-.238.272.14.673.426.445 2.158-1.344 4.131-2.97 5.983-4.706 2.935-2.777 5.186-6.204 6.925-9.83.856-1.843 1.533-3.847 1.384-5.906-.074-.965-.103-1.992-.574-2.861-.42-.634-1.29-.55-1.953-.548-2.781.03-5.38 1.224-7.737 2.6a50.683 50.683 0 0 0-7.994 5.916c-.342.37-.82.674-.998 1.159a.343.343 0 0 0 0 .087zm17.231 28.1c-.006.044.014.088.017.132.147.32.542.148.616-.128.818-1.64 2.14-3.022 3.81-3.814 1.768-.894 3.858-1.08 5.766-.554a8.115 8.115 0 0 1 5.294 4.447c1.011 2.1 1.014 4.613.083 6.727-.453 1.118-1.22 2.073-2.119 2.867-1.12 1.042-2.605 1.682-4.086 1.95-.898.072-1.81.096-2.706-.012-.662-.111-1.288-.36-1.932-.531-.347-.006-.381.45-.12.605 2.345 2.292 5.503 3.712 8.759 4.057 2.062.146 4.16.105 6.169-.425a30.497 30.497 0 0 0 8.43-3.564c1.96-1.188 3.52-2.913 4.81-4.784 1.889-2.66 3.519-5.595 4.121-8.833.409-2.022.468-4.106.257-6.155a8.52 8.52 0 0 0-2.28-4.62c-2.004-2.146-4.686-3.599-7.503-4.38-1.355-.382-2.765-.514-4.17-.46-2.198.004-4.31.692-6.423 1.216-3.738.963-7.293 2.732-10.204 5.274-2.051 1.753-3.498 4.07-4.795 6.402-.794 1.439-1.473 2.966-1.794 4.583z" stroke="#D81B60" stroke-width=".055" fill="#E1F5FE" fill-rule="nonzero"/><path d="M38.79 67.537c-.006.108-.005.218.004.33.014 1.968 2.649 3.25 4.136 1.875 1.56-1.073 1.15-3.71-.629-4.309-1.511-.635-3.404.485-3.51 2.104zm1.19-8.446c-.016 1.293 1.334 2.328 2.586 2.132 1.338-.143 2.38-1.626 1.93-2.92-.288-.968-1.252-1.76-2.295-1.645-1.038-.066-1.993.795-2.201 1.78-.027.216-.02.436-.02.653zm3.014 12.975c-.004 1.262 1.147 2.329 2.391 2.338 1.235.058 2.365-.976 2.458-2.197.168-1.404-1.122-2.763-2.541-2.647-1.297.063-2.367 1.203-2.308 2.506zm1.717-9.558c-.018 1.175.994 2.233 2.17 2.275 1.28.101 2.556-1.06 2.415-2.367.046-1.279-1.213-2.372-2.473-2.222-1.12.072-2.094 1.049-2.11 2.177-.002.046-.002.091-.002.137zm.884-9.012c-.041 1.082 1.018 1.986 2.077 1.873 1.11-.067 2-1.259 1.683-2.338-.207-.964-1.255-1.655-2.226-1.416-.891.113-1.559 1.009-1.534 1.88zm3.264 89.311c-.01 1.025.982 1.916 2.007 1.756 1.136-.05 1.935-1.365 1.506-2.401-.32-.893-1.391-1.447-2.294-1.09-.737.24-1.256.956-1.219 1.735zm.276-75.913c-.027 1.229 1.109 2.3 2.333 2.243 1.29.039 2.411-1.2 2.258-2.475-.042-1.002-.873-1.924-1.862-2.08-.61-.067-1.256 0-1.755.389a2.326 2.326 0 0 0-.974 1.923zm1.086-9.48c-.012 1.262 1.158 2.362 2.418 2.301 1.287-.016 2.445-1.237 2.266-2.533-.07-1.083-.973-2.028-2.06-2.134-1.304-.185-2.598.925-2.622 2.237a2.436 2.436 0 0 0 0 .128h-.002zm.659-8.662c-.037.952.801 1.8 1.713 1.943.616.055 1.293.002 1.755-.46.699-.576.968-1.589.615-2.427-.338-.859-1.277-1.443-2.202-1.316-.875.048-1.676.764-1.862 1.61-.027.215-.02.433-.02.65zm.282 85.835c-.034 1.012.873 1.91 1.885 1.88 1.076.035 2.02-.989 1.893-2.056-.068-1.112-1.262-1.984-2.344-1.67-.812.204-1.476.996-1.434 1.846zm.673 25.13c-.037.703.526 1.44 1.246 1.483.482-.078.571-.66.834-.983.211-.42.572-.785.69-1.241-.12-.492-.71-.81-1.202-.73-.575.153-1.252.401-1.505.987a1.59 1.59 0 0 0-.063.485zm2.529-17.317c-.004.978 1.113 1.767 2.029 1.359.773-.27 1.249-1.217.88-1.974-.319-.84-1.449-1.214-2.195-.697a1.502 1.502 0 0 0-.714 1.312zm.05-81.023c.007 1.23 1.158 2.295 2.39 2.206 1.093-.028 2.037-.934 2.176-2.005.154-1.09-.623-2.225-1.698-2.488-1.22-.353-2.61.508-2.825 1.76-.035.173-.05.35-.044.527zm.931-8.785c-.004.1 0 .201.012.303.021.773.518 1.516 1.192 1.888.867.496 2.03.344 2.732-.369.544-.496.79-1.25.684-1.975-.084-.938-.873-1.783-1.797-1.954-.618-.05-1.3-.07-1.807.347-.567.408-.987 1.058-1.016 1.76zm.842 83.146c-.036.913 1.064 1.562 1.865 1.154.787-.336 1.01-1.474.405-2.078-.558-.658-1.734-.52-2.112.262-.11.202-.164.432-.158.662zm.265-91.042c.006.92.932 1.656 1.832 1.503 1.032-.096 1.733-1.386 1.198-2.292-.3-.608-.998-.99-1.675-.85-.806.081-1.41.843-1.355 1.64zm2.574 20.826c0 1.075 1.049 1.978 2.108 1.935 1.174.013 2.216-1.125 2.06-2.289-.09-1.072-1.094-1.962-2.175-1.9-1.09.018-2.119 1.036-1.993 2.147v.107zm1.24-8.808c-.018.871.596 1.684 1.438 1.916 1.252.47 2.752-.652 2.651-1.983.05-1.153-1.066-2.113-2.192-2.02-1.057.052-1.974 1.017-1.896 2.087zm.351-7.813c.018.916.784 1.722 1.7 1.79 1.135.157 2.205-.914 2.074-2.04-.088-1.083-1.23-1.946-2.3-1.663-.889.173-1.515 1.02-1.474 1.913zm3.843 11.852c-.005 1.168 1.23 2.14 2.367 1.85 1.015-.19 1.739-1.283 1.48-2.288-.157-.904-1.057-1.637-1.989-1.508-1.034-.054-1.878.96-1.858 1.946zm.276-16.115c-.007 1.034.843 1.938 1.856 2.077 1.247.194 2.548-.94 2.394-2.221.003-1.065-.986-2.088-2.077-1.99-1.192-.14-2.217.983-2.173 2.134zm.4 8.054c-.017 1 .803 1.902 1.796 2.004 1.195.2 2.383-.863 2.325-2.068-.011-1.026-.874-1.963-1.913-2.005-1.172-.123-2.252.9-2.207 2.07zm4.082 2.81c-.024.975.929 1.831 1.903 1.677.962-.059 1.706-1.031 1.534-1.971-.084-.956-1.093-1.613-2.012-1.448-.815.112-1.491.915-1.425 1.742zm.156-6.839c.057.982.86 1.871 1.855 1.963 1.252.2 2.52-.976 2.339-2.246-.05-1.039-1.03-1.997-2.097-1.895-.94-.084-1.795.637-2.01 1.527a2.12 2.12 0 0 0-.087.651zm.12-7.9c.024 1.053.995 1.978 2.056 1.943 1.177.049 2.244-1.07 2.07-2.246-.035-1.098-1.114-1.996-2.199-1.883-1.073.017-2.057 1.118-1.927 2.187zm3.86 3.508c.089.954.985 1.843 1.978 1.752 1.2.112 2.238-1.158 1.977-2.312-.127-.853-.92-1.585-1.785-1.633-.992-.123-2.014.616-2.136 1.618-.029.19-.037.383-.034.575zm1.59-5.214c.011 1.118 1.17 2.045 2.267 1.778 1.115-.195 1.825-1.523 1.348-2.55-.396-1.007-1.73-1.483-2.664-.913a1.893 1.893 0 0 0-.95 1.685zm4.354 116.302c-.003.96.916 1.81 1.879 1.726.964-.013 1.79-.943 1.696-1.9-.03-.979-1.007-1.791-1.977-1.665-.899.092-1.656.927-1.598 1.839zm.972-8.354c.001.924.774 1.757 1.688 1.865.804.127 1.638-.323 2.004-1.041.243-.453.267-1.009.122-1.495-.27-.829-1.131-1.433-2.011-1.346-.945.06-1.794.893-1.8 1.85a3.29 3.29 0 0 0-.003.167zm5.033 7.94c.011.398.184.81.5 1.06.235.137.48-.075.564-.29.303-.613.582-1.238.863-1.861.085-.25-.171-.422-.39-.44-.761-.05-1.469.596-1.53 1.346a1.501 1.501 0 0 0-.007.184zm1.677-9.361c-.01.78.567 1.494 1.31 1.706a1.804 1.804 0 0 0 1.806-.52c.43-.443.574-1.12.403-1.707-.217-.775-1.001-1.342-1.81-1.288-.856.027-1.621.743-1.698 1.594a1.826 1.826 0 0 0-.01.215zm15.027 4.233c-.009.71.656 1.321 1.36 1.292.708.01 1.367-.64 1.3-1.356.043-.75-.699-1.384-1.43-1.317-.679.044-1.25.67-1.23 1.348v.033zm.409 6.65c.023.597.61 1.095 1.205 1.021.6-.042 1.102-.645.986-1.244-.048-.7-.897-1.166-1.525-.868-.409.18-.698.605-.666 1.057v.034z" stroke="#D81B60" stroke-width=".156" fill="#F3E5F5" fill-rule="nonzero"/><g><path d="M95.17 110.799c-.233.466-.467.933-.862 1.525a14.891 14.891 0 0 1-1.55 1.935 10.142 10.142 0 0 1-1.838 1.53c-.62.394-1.23.663-1.85.906-.62.242-1.25.458-1.852.772-.601.314-1.176.727-1.841 1.22a57.17 57.17 0 0 0-2.282 1.777 94.736 94.736 0 0 0-2.956 2.558 362.838 362.838 0 0 0-3.67 3.342c-1.263 1.162-2.52 2.33-3.85 3.55a270.087 270.087 0 0 1-4.17 3.76 325.97 325.97 0 0 1-4.294 3.697 1207.857 1207.857 0 0 1-3.715 3.145c-1.029.866-1.82 1.527-2.817 2.21-.997.685-2.237 1.42-3.459 2.138s-2.426 1.418-3.558 1.993a24.316 24.316 0 0 1-3.171 1.355c-.98.332-1.878.547-2.759.7-.88.152-1.742.242-2.533.25-.792.01-1.51-.062-2.337-.152-.826-.09-1.76-.197-2.56-.377s-1.464-.43-2.085-.69c-.62-.261-1.194-.53-1.67-.862-.477-.333-.854-.727-1.438-1.284-.585-.556-1.375-1.274-2.21-2.252a22.694 22.694 0 0 1-2.471-3.563c-.755-1.346-1.384-2.8-1.932-4.28a52.681 52.681 0 0 1-1.464-4.658c-.45-1.67-.88-3.5-1.15-5.393a34.532 34.532 0 0 1-.333-5.627c.045-1.777.243-3.374.459-4.89a71.84 71.84 0 0 1 .79-4.605c.342-1.651.79-3.517 1.348-5.375.557-1.858 1.222-3.706 1.968-5.618a167.48 167.48 0 0 1 2.398-5.788c.827-1.903 1.654-3.733 2.507-5.33a39.14 39.14 0 0 1 2.57-4.146 49.101 49.101 0 0 1 2.363-3.078c.736-.889 1.428-1.67 2.125-2.258.696-.587 1.415-1 2.097-1.341.683-.34 1.33-.61 2.291-.924.962-.314 2.238-.673 3.855-1.239a84.545 84.545 0 0 0 5.678-2.252c2.102-.915 4.349-1.974 6.433-3.141a54.976 54.976 0 0 0 5.678-3.67c1.672-1.23 3.091-2.414 4.331-3.76 1.24-1.347 2.3-2.854 3.27-4.353.971-1.499 1.851-2.988 2.687-4.82.836-1.83 1.626-4.001 2.273-6.012.647-2.01 1.15-3.858 1.51-5.609.359-1.75.574-3.4.637-4.738.063-1.337-.027-2.36-.242-2.854-.216-.493-.558-.457-.989-.376-.43.08-.952.206-1.433.41-.48.204-.939.496-1.36.738-.423.243-.819.44-1.456.664-.638.225-1.519.476-2.705.79-1.185.314-2.677.691-4.107 1.084-1.429.392-2.83.81-4.187 1.273-1.357.464-2.721.99-4.05 1.556a83.09 83.09 0 0 0-4.117 1.899 125.716 125.716 0 0 0-4.626 2.381c-1.482.808-2.794 1.58-4.115 2.585-1.32 1.005-2.65 2.243-3.917 3.572-1.267 1.328-2.47 2.746-3.432 4.2-.961 1.453-1.68 2.943-2.192 4.181-.512 1.239-.818 2.226-1.16 3.23-.34 1.006-.718 2.029-.978 3.007-.261.978-.405 1.911-.495 2.674-.09.763-.125 1.355-.431 2.056-.306.7-.88 1.507-1.779 2.584-.899 1.077-2.12 2.423-3.261 3.85s-2.201 2.934-3.258 4.48c-1.056 1.547-2.124 3.157-2.969 4.772-.844 1.615-1.473 3.248-2.163 4.905-.69 1.658-1.448 3.351-2.104 4.993a72.412 72.412 0 0 0-1.743 4.9 80.006 80.006 0 0 0-1.483 5.205 69.334 69.334 0 0 0-1.177 5.851c-.332 2.11-.602 4.406-.835 6.56-.234 2.154-.432 4.164-.468 6.147-.036 1.984.09 3.94.26 5.68.172 1.742.387 3.267.98 5.224.593 1.957 1.563 4.343 2.516 6.308a35.859 35.859 0 0 0 2.902 4.972 38.269 38.269 0 0 0 3.234 4.065 34.524 34.524 0 0 0 3.55 3.33c1.275 1.05 2.676 2.09 4.357 2.988 1.68.898 3.638 1.651 5.426 2.199 1.789.547 3.405.888 4.87 1.05 1.465.161 2.776.143 4.223 0a32.393 32.393 0 0 0 4.34-.736c1.311-.323 2.353-.7 3.268-1.117.914-.416 1.673-.857 2.33-1.387.655-.53 1.194-1.14 1.733-1.75" stroke="#000"/><path d="M88.485 119.199c.072.268.144.537.144.79 0 .25-.072.484-.571.957-.5.473-1.441 1.196-2.51 2.138-1.07.942-2.274 2.11-3.612 3.33-1.34 1.22-2.813 2.494-4.34 3.93-1.527 1.436-3.109 3.034-4.506 4.411-1.397 1.378-2.628 2.553-4.03 3.998a110.272 110.272 0 0 0-4.519 4.963 103.762 103.762 0 0 0-4.132 5.142c-1.106 1.48-1.824 2.575-2.408 3.571-.584.996-1.034 1.894-1.75 3.182-.717 1.289-1.71 2.983-2.707 4.805a99.841 99.841 0 0 0-2.902 5.708 87.602 87.602 0 0 0-2.39 5.662c-.7 1.831-1.311 3.59-1.752 5.25-.44 1.66-.71 3.221-.764 4.702-.055 1.481.108 2.916.45 4.164a11.3 11.3 0 0 0 1.42 3.177c.556.853 1.149 1.48 1.877 2.01.728.53 1.59.96 2.704 1.257 1.115.296 2.48.457 3.603.441a8.997 8.997 0 0 0 2.92-.522c.881-.305 1.743-.718 2.471-1.247.728-.53 1.32-1.176 1.856-1.834.535-.658 1.028-1.352 1.415-2.097.386-.745.674-1.553 1.5-1.992.826-.44 2.192-.512 1.178-.496-1.013.016-4.403.12-7.793.223M104.658 143.913c.018.25.036.502.08.942.046.44.117 1.068.153 2.002.036.933.036 2.17.01 3.598a86.242 86.242 0 0 1-.19 4.514c-.107 1.472-.269 2.8-.52 4.227a57.704 57.704 0 0 1-.989 4.469 55.566 55.566 0 0 1-1.302 4.325c-.459 1.302-.926 2.396-1.483 3.67a147.473 147.473 0 0 1-1.779 3.94 56.772 56.772 0 0 1-1.581 3.096c-.503.916-1.006 1.777-1.51 2.477-.503.7-1.006 1.239-1.41 1.633-.405.395-.71.647-1.015.898" stroke="#000"/><path d="M116.733 147.52a43.136 43.136 0 0 1-.251 3.025c-.144 1.158-.378 2.539-.665 4.056-.288 1.517-.63 3.167-1.007 4.64-.377 1.471-.79 2.763-1.23 4.181-.44 1.418-.908 2.962-1.42 4.443a82.758 82.758 0 0 1-1.653 4.325 138.133 138.133 0 0 1-1.869 4.361 113.81 113.81 0 0 1-2.075 4.38 43.126 43.126 0 0 1-1.905 3.437c-.647 1.041-1.348 2.046-2.049 2.89-.7.843-1.401 1.525-2.21 2.108a10.863 10.863 0 0 1-2.622 1.391c-.897.323-1.78.485-2.787.53a18.86 18.86 0 0 1-3.055-.144c-.916-.116-1.617-.278-2.461-.61-.845-.332-1.834-.835-2.498-1.364-.665-.53-1.007-1.087-1.267-1.725-.261-.64-.44-1.354-.565-1.982-.124-.628-.199-1.202-.252-1.58-.054-.376-.09-.574-.126-.77" stroke="#000"/><path d="M106.868 144.56c-.198-.217-.405-.442-.769-.544-.364-.103-.902-.103-1.468.04-.566.144-1.262.481-1.768.977-.505.495-1.026 1.25-1.458 2.039-.43.79-.772 1.615-1.069 2.432-.296.816-.548 1.624-.8 2.414-.25.79-.503 1.561-.799 2.405a43.584 43.584 0 0 1-1.033 2.683 59.442 59.442 0 0 1-1.303 2.79c-.458.934-.925 1.868-1.375 2.855-.449.987-.88 2.028-1.266 3.033-.387 1.005-.728 1.974-1.15 2.97-.423.996-.933 2.034-1.433 3.077-.5 1.042-1.002 2.12-1.721 3.51a87.116 87.116 0 0 1-2.47 4.46c-.818 1.364-1.514 2.38-2.047 3.191-.532.812-.892 1.404-1.233 1.925-.342.52-.665.969-1.105 1.606-.44.637-.998 1.463-1.546 2.136a8.876 8.876 0 0 1-1.76 1.678c-.675.485-1.483.933-2.409 1.337-.925.404-1.967.763-2.91 1.032-.945.27-1.788.449-2.58.512a7.455 7.455 0 0 1-2.282-.162c-.755-.17-1.527-.458-2.174-.844-.647-.386-1.168-.87-1.473-1.409-.306-.539-.396-1.13-.413-1.759-.018-.628.035-1.292.202-2.117.166-.826.445-1.813-.472-2.055-.917-.242-3.028.26-4.192.35-1.163.089-1.379-.234-1.46-.691-.08-.457-.026-1.05.126-2.01.153-.96.405-2.29.782-3.536.377-1.248.88-2.415 1.339-3.518.458-1.104.871-2.145 1.536-3.554a75.506 75.506 0 0 1 2.489-4.783c.907-1.597 1.806-3.015 2.821-4.64 1.015-1.624 2.148-3.455 3.342-5.187 1.195-1.731 2.453-3.365 3.594-4.935 1.141-1.57 2.166-3.078 3.145-4.433a54.238 54.238 0 0 1 2.857-3.653 43.95 43.95 0 0 1 2.857-3.006c.961-.924 1.932-1.786 2.675-2.297.743-.51 1.269-.673 1.88-.763.611-.09 1.312-.108 1.815.044.503.153.808.476 1.024.907.216.431.342.969.35 1.597.01.629-.098 1.346-.314 2.208-.215.862-.539 1.866-.997 3.096a71.613 71.613 0 0 1-1.698 4.128c-.647 1.445-1.348 2.88-2.156 4.666-.809 1.786-1.725 3.922-2.647 5.862-.922 1.941-1.863 3.714-2.717 5.49-.854 1.778-1.626 3.572-2.345 4.981-.719 1.41-1.384 2.432-2.076 3.563-.691 1.13-1.41 2.369-2.093 3.455a52.484 52.484 0 0 1-1.887 2.79 69.23 69.23 0 0 1-1.42 1.894c-.395.512-.718.925-1.024 1.194-.305.27-.593.395-.88.52M69.51 184.511c-.736.034-1.472.055-2.207.083M128.97 144.72c-.647 1.131-1.293 2.262-1.985 3.626a75.223 75.223 0 0 0-2.175 4.73 95.122 95.122 0 0 0-2.18 5.663 106.566 106.566 0 0 0-1.863 5.967 151.529 151.529 0 0 0-1.59 6.12c-.503 2.109-.988 4.316-1.402 6.578a117.047 117.047 0 0 0-1.033 6.865c-.278 2.289-.494 4.55-.494 6.964 0 2.414.216 4.98.584 7.457.368 2.477.89 4.864 1.546 7.182a69.128 69.128 0 0 0 2.206 6.478c.76 1.922 1.504 3.552 2.34 5.078a40.778 40.778 0 0 0 2.785 4.361 50.437 50.437 0 0 0 3.27 4.057c1.16 1.292 2.38 2.512 3.594 3.446 1.213.933 2.416 1.579 3.845 2.243a53.749 53.749 0 0 0 4.879 1.975 51.555 51.555 0 0 0 5.526 1.605c1.788.402 3.458.638 5.31.7a35.165 35.165 0 0 0 5.786-.302 28.535 28.535 0 0 0 5.432-1.284c1.785-.609 3.624-1.42 5.44-2.335 1.814-.915 3.61-1.938 5.507-3.078 1.896-1.14 3.89-2.396 5.525-3.446 1.635-1.05 2.911-1.893 4.196-2.468 1.285-.574 2.578-.879 3.9-1.175 1.32-.296 2.667-.583 3.957-.953s2.502-.815 3.643-1.309a34.213 34.213 0 0 0 3.388-1.705c1.186-.673 2.497-1.48 3.674-2.44 1.177-.961 2.22-2.074 3.379-3.429 1.159-1.355 2.434-2.952 3.423-4.478.988-1.526 1.689-2.98 2.444-4.532.754-1.552 1.563-3.204 2.318-4.765a144.332 144.332 0 0 0 2.093-4.478c.638-1.445 1.213-2.863 1.671-4.254.458-1.39.8-2.755.899-3.617.098-.861-.046-1.22-.252-1.39-.205-.17-.477-.153-.844.036-.368.188-.836.547-1.627.852-.79.306-1.905.557-3.306.907s-3.091.799-5.023 1.382a108.79 108.79 0 0 0-6.118 2.046 82.97 82.97 0 0 0-5.445 2.234c-1.581.718-2.893 1.382-4.016 2.073a20.656 20.656 0 0 0-2.938 2.19c-.88.78-1.707 1.624-2.587 2.674-.88 1.05-1.815 2.306-2.597 3.626-.782 1.319-1.41 2.7-1.914 4.002a34.493 34.493 0 0 0-1.177 3.643c-.296 1.122-.512 2.145-.844 3.079a12.092 12.092 0 0 1-1.286 2.55c-.504.772-1.06 1.47-2.066 2.296-1.006.825-2.461 1.777-3.944 2.665-1.482.888-2.992 1.714-4.528 2.423-1.536.709-3.1 1.301-4.6 1.849-1.5.547-2.938 1.05-4.6 1.444-1.662.395-3.55.683-5.293.853-1.742.17-3.342.224-4.842.224-1.5 0-2.903-.054-4.034-.154-1.132-.1-1.96-.24-2.844-.641-.885-.401-1.829-1.072-2.799-1.861a46.373 46.373 0 0 1-3.018-2.72c-1.042-1.013-2.121-2.127-3.082-3.275-.961-1.148-1.806-2.334-2.516-3.616-.71-1.283-1.285-2.666-1.779-4.03a29.101 29.101 0 0 1-1.24-4.37c-.332-1.66-.584-3.635-.763-5.67-.18-2.037-.288-4.14-.378-6.149-.09-2.01-.161-3.93-.161-5.69 0-1.758.072-3.356.205-4.855.134-1.498.334-2.934.594-4.325.26-1.39.584-2.755.998-4.388.413-1.633.916-3.536 1.572-5.752.656-2.217 1.465-4.748 2.31-7.045a71.42 71.42 0 0 1 2.65-6.29 57.15 57.15 0 0 1 3.144-5.726c1.249-2.001 2.776-4.209 4.025-5.995 1.25-1.786 2.22-3.15 3.342-4.352 1.123-1.203 2.4-2.244 3.89-3.572a124.415 124.415 0 0 0 4.614-4.347 93.898 93.898 0 0 0 3.707-3.891c1.15-1.274 2.318-2.62 3.387-3.877a404.61 404.61 0 0 0 3.01-3.59" stroke="#000"/><path d="M138.947 149.28c.216.61.432 1.218.75 2.235.318 1.016.737 2.435 1.118 3.698.381 1.264.724 2.367 1.048 3.427.324 1.06.63 2.075.934 3.211.305 1.136.61 2.392.743 3.49a10.063 10.063 0 0 1-.057 2.951 8.505 8.505 0 0 1-.92 2.729 10.035 10.035 0 0 1-2.06 2.62 7.925 7.925 0 0 1-2.63 1.549 8.354 8.354 0 0 1-2.795.482c-.972.006-2.002-.133-2.872-.476-.87-.343-1.582-.889-2.084-1.358-.501-.47-.794-.863-1.086-1.256" stroke="#000"/><path d="M132.162 162.416c.076.418.153.837.286 1.358.134.52.324 1.142.553 1.732.228.59.495 1.148.724 1.707.229.559.42 1.117.629 1.682.21.565.438 1.135.667 1.707M104.739 184.404c.287.35.574.7.934 1 .36.301.79.552 1.312.79a12.9 12.9 0 0 0 3.706 1.028c.615.071 1.172.08 1.693.062a10.836 10.836 0 0 0 1.451-.139 4.977 4.977 0 0 0 1.272-.377c.422-.193.862-.47 1.303-.749M107.838 183.623c.27-.359.54-.718.782-1.176a7.04 7.04 0 0 0 .616-1.678 14.29 14.29 0 0 0 .31-2.172c.053-.735.062-1.436.062-2.073s-.009-1.211-.018-1.785M100.602 159.742c.085-1.194.17-2.387.15-3.468-.02-1.08-.146-2.05-.29-2.943a69.765 69.765 0 0 0-.467-2.526M76.076 163.656c.336-1.071.672-2.142.876-3.086.204-.944.276-1.76.316-2.604.04-.843.05-1.714.072-2.697.022-.982.058-2.077-.009-3.015-.067-.938-.238-1.719-.409-2.499M51.008 165.043c-.306-.622-.61-1.244-.922-1.866-.31-.621-.629-1.244-.883-1.84a22.434 22.434 0 0 1-.635-1.738M46.738 148.1c-.063-.178-.127-.356-.178-.824-.05-.468-.088-1.232-.114-2.164-.025-.933-.038-2.038.115-3.268.152-1.231.47-2.59.908-3.871a17.982 17.982 0 0 1 1.747-3.7c.75-1.211 1.69-2.43 2.675-3.413.984-.984 2.014-1.733 2.96-2.178.946-.445 1.785-.583 2.51-.532.724.05 1.32.292 1.81.647.49.355.87.825 1.074 1.313.203.49.229.996.159 1.65-.07.655-.235 1.453-.457 2.152-.223.698-.502 1.294-.826 1.935-.324.641-.693 1.326-.909 1.89-.216.566-.28 1.01-.235 1.511.045.502.197 1.06.381 1.491.184.432.4.736.616 1.041M117.296 128.403c-.115-.47-.343-1.409-.445-2.474a11.884 11.884 0 0 1 .165-3.452c.242-1.193.7-2.386 1.335-3.655a35.36 35.36 0 0 1 2.172-3.693c.725-1.079 1.36-1.891 2.237-2.767a20.655 20.655 0 0 1 3.367-2.703 26.95 26.95 0 0 1 4.498-2.322c1.499-.597 2.87-.952 4.396-1.346 1.525-.393 3.202-.825 4.942-.914 1.741-.088 3.545.165 5.266.727a17.517 17.517 0 0 1 4.62 2.332c1.283.914 2.223 1.878 2.91 2.868a8.19 8.19 0 0 1 1.347 3.16c.228 1.155.254 2.45.165 3.833-.089 1.384-.292 2.855-.699 4.277-.407 1.422-1.016 2.792-1.659 3.989-.642 1.197-1.34 2.255-2.127 3.372-.788 1.117-1.678 2.31-2.897 3.376-1.22 1.066-2.77 2.005-4.524 2.843-1.753.837-3.71 1.573-5.387 2.017a18.008 18.008 0 0 1-4.41.622c-1.334.026-2.605-.076-3.888-.368a16.053 16.053 0 0 1-3.702-1.352 13.718 13.718 0 0 1-3.045-2.138 22.352 22.352 0 0 1-2.604-2.894c-.75-.99-1.335-1.93-1.627-2.398-.292-.47-.292-.47-.406-.94z" stroke="#000"/><path d="M116.953 127.236a8.279 8.279 0 0 0 3.146 5.417 8.298 8.298 0 0 0 6.06 1.608 8.292 8.292 0 0 0 5.422-3.143 8.273 8.273 0 0 0 1.61-6.052 8.279 8.279 0 0 0-3.146-5.417 8.298 8.298 0 0 0-6.06-1.608 8.292 8.292 0 0 0-5.422 3.143 8.273 8.273 0 0 0-1.61 6.052zM101.421 110.167c.167-.06.303-.073.474-.14.966-.381 2.008-.875 3.057-1.516 1.048-.641 2.102-1.428 3.189-2.31a42.427 42.427 0 0 0 3.183-2.837 26.812 26.812 0 0 0 2.592-2.995 37.498 37.498 0 0 0 2.16-3.28c.673-1.137 1.309-2.305 1.842-3.536.534-1.23.967-2.525 1.113-3.794.146-1.269.006-2.513-.153-3.35-.159-.838-.337-1.27-.718-1.496-.38-.226-.965-.248-1.699-.22-.734.027-1.62.104-2.632.366-1.013.263-2.155.711-3.34 1.303-1.186.592-2.418 1.328-3.76 2.226a54.824 54.824 0 0 0-4.047 2.975 28.634 28.634 0 0 0-3.297 3.119c.285.045.573.066.851.14a8.365 8.365 0 0 1 1.506.558 8.037 8.037 0 0 1 2.536 1.937 8.343 8.343 0 0 1 1.605 2.761 8.015 8.015 0 0 1 .423 3.161 8.329 8.329 0 0 1-.82 3.085 8.034 8.034 0 0 1-1.939 2.534 8.354 8.354 0 0 1-1.306.934c-.26.15-.545.253-.82.375zM94.755 110.148c.01.016.028.052.038.067.18.279.278.43.616.543.338.113.916.186 1.58.21.56.02 1.209-.033 1.88-.125-.417.036-.835.068-1.252.04a8.356 8.356 0 0 1-1.583-.26 8.362 8.362 0 0 1-1.279-.475z" stroke="#000"/><path d="M94.755 110.148c.415.187.838.357 1.279.474a8.358 8.358 0 0 0 1.583.261c.417.028.835-.004 1.252-.04.126-.018.223 0 .352-.023.675-.12 1.428-.373 2.2-.653.275-.122.56-.224.82-.375a8.355 8.355 0 0 0 1.306-.934 8.034 8.034 0 0 0 2.497-4.037 8.33 8.33 0 0 0 .262-1.582 8.025 8.025 0 0 0-.423-3.16 8.338 8.338 0 0 0-1.605-2.762 8.037 8.037 0 0 0-2.537-1.937 8.365 8.365 0 0 0-1.505-.558c-.278-.074-.566-.095-.85-.14l-.015.013a34.37 34.37 0 0 0-2.866 3.689c-.85 1.26-1.55 2.49-2.035 3.58-.485 1.09-.755 2.041-.89 2.863a6.776 6.776 0 0 0-.027 2.208c.108.695.323 1.394.561 1.947.225.522.463.89.641 1.167z" stroke="#000"/><path d="M8.499 185.3c.918 1.517 1.302 3.293 1.261 5.014-.02.427.021 1.088.651.93 5.224.303 10.446.7 15.672.94.55.03.524-.59.32-.939-1.528-4.982-3.129-9.942-4.724-14.904-.468-.518-1.022.43-1.492.59-3.865 2.67-7.73 5.341-11.597 8.011-.088.12-.159.205-.091.357z" stroke="#D81B60" stroke-width=".11" fill="#FCE4EC" fill-rule="nonzero"/><path d="M118.495 84.796c.88-1.167 1.761-2.333 2.983-3.823 1.222-1.49 2.785-3.303 4.435-5.281 1.65-1.98 3.4-4.142 5.142-6.188 1.743-2.046 3.486-3.984 5.427-6.138 1.94-2.154 4.08-4.523 6.02-6.587a194.317 194.317 0 0 1 5.463-5.573 173.21 173.21 0 0 1 5.354-5.08 121.863 121.863 0 0 1 5.19-4.411c1.72-1.388 3.471-2.74 5.179-4.033a153.401 153.401 0 0 1 5.175-3.778c1.797-1.247 3.72-2.503 5.57-3.706 1.851-1.203 3.63-2.351 5.957-3.518 2.327-1.167 5.202-2.351 8.086-3.49a251.713 251.713 0 0 1 8.384-3.157c2.606-.922 4.958-1.68 7.86-2.677 2.903-.996 6.37-2.234 9.2-3.213 2.83-.978 5.023-1.696 7.26-2.405 2.237-.709 4.52-1.408 6.813-2.082a356.267 356.267 0 0 1 6.898-1.947c2.309-.628 4.627-1.238 6.918-1.732 2.291-.494 4.555-.87 6.281-1.13 1.726-.261 2.91-.404 5.462-.62 2.553-.215 6.468-.502 9.299-.628 2.83-.126 4.573-.09 6.63.08 2.058.171 4.43.476 6.1.781 1.672.305 2.642.61 3.163.763.521.153.593.153.666.306.072.154.143.456-.127 1.823s-.88 3.785-1.49 5.804c-.611 2.02-1.222 3.634-1.77 4.837-.549 1.203-1.034 1.992-1.519 2.782" stroke="#000"/><path d="M274.342 12.376c.036 1.92.072 3.84.1 5.24.026 1.4.044 2.28 0 3.303-.046 1.023-.153 2.189-.315 3.58a56.006 56.006 0 0 1-.773 4.936c-.395 1.93-.97 4.173-1.572 6.461a939.321 939.321 0 0 1-1.842 6.874c-.611 2.253-1.204 4.424-1.869 6.865-.665 2.442-1.401 5.151-2.165 7.889-.764 2.737-1.554 5.5-2.564 8.65-1.009 3.149-2.225 6.65-3.284 9.59-1.06 2.941-1.96 5.316-2.75 7.273a91.282 91.282 0 0 1-2.306 5.251 127.639 127.639 0 0 1-2.843 5.625 105.846 105.846 0 0 1-3.126 5.412c-1.07 1.732-2.166 3.4-3.343 4.998-1.177 1.598-2.434 3.123-3.8 4.496a29.964 29.964 0 0 1-4.313 3.599c-1.473 1.005-2.947 1.795-4.318 2.484a76.176 76.176 0 0 1-4.38 2.027 159.825 159.825 0 0 1-6.037 2.444 119.26 119.26 0 0 1-5.966 2.09 63.062 63.062 0 0 1-5.65 1.553c-2.112.476-4.646.943-6.623 1.257-1.976.314-3.396.475-4.977.538-1.581.063-3.325.027-5.4-.018a363.812 363.812 0 0 1-6.469-.18c-1.985-.08-3.55-.188-5.382-.421-1.832-.233-3.935-.593-5.795-.934-1.86-.34-3.477-.664-5.21-.96a151.03 151.03 0 0 0-4.844-.736c-1.257-.17-1.923-.242-3.018-.44-1.095-.197-2.624-.52-4.151-.843M164.532 104.987a290.335 290.335 0 0 1 5.05-4.137 298.457 298.457 0 0 1 5.642-4.36c1.815-1.374 3.432-2.576 5.076-3.833a317.475 317.475 0 0 0 4.591-3.58c1.276-1.015 2.157-1.732 3.468-2.747 1.312-1.014 3.055-2.324 4.942-3.75 1.887-1.428 3.917-2.971 6.226-4.73 2.31-1.759 4.897-3.733 7.574-5.797 2.678-2.064 5.445-4.218 7.853-6.273 2.408-2.055 4.456-4.011 6.348-5.748 1.892-1.736 3.607-3.235 5.251-4.707 1.644-1.472 3.208-2.907 4.77-4.316 1.564-1.41 3.128-2.791 4.592-4.128 1.465-1.338 2.83-2.63 4.371-4.053 1.541-1.422 3.275-2.992 4.946-4.58 1.671-1.589 3.289-3.204 4.798-4.712 1.51-1.507 2.911-2.907 4.205-4.11 1.293-1.202 2.48-2.207 3.71-3.275a148.74 148.74 0 0 0 3.657-3.267c1.15-1.068 2.174-2.073 2.983-2.845.809-.771 1.402-1.31 1.995-1.848M264.997 3.425c-1.106-.343-2.211-.686-4.097-1.054-1.886-.368-4.556-.761-7.446-1.053-2.89-.292-6.004-.482-8.266-.603-2.262-.12-3.672-.171-5.501-.159-1.83.013-4.08.09-6.487.248-2.408.159-4.975.4-7.401.666-2.427.267-4.715.559-6.798.87-2.084.31-3.965.64-6.118 1.066-2.154.425-4.581.945-6.817 1.364-2.236.419-4.282.736-6.074 1.06-1.791.323-3.329.653-4.612.933-1.283.279-2.313.507-3.494.767-1.182.26-2.516.552-3.876.844-1.359.292-2.744.584-3.862.813-1.118.228-1.97.393-3.152.658-1.181.265-2.719.636-4.46 1.169-1.74.533-3.697 1.231-5.628 1.967a216.9 216.9 0 0 0-5.692 2.278c-1.855.768-3.66 1.53-5.343 2.304a135.857 135.857 0 0 0-4.656 2.274c-1.409.713-2.644 1.343-3.99 2.161a36.356 36.356 0 0 0-4.124 2.913c-1.328 1.091-2.535 2.272-3.71 3.49a55.813 55.813 0 0 0-3.418 3.845c-1.1 1.37-2.154 2.856-3.202 4.379-1.048 1.523-2.09 3.084-3.196 4.715-1.105 1.63-2.274 3.33-3.367 5.044a74.78 74.78 0 0 0-3.018 5.153c-.908 1.713-1.708 3.414-2.592 5.394a260.325 260.325 0 0 0-2.566 5.97c-.718 1.733-1.188 2.939-1.665 4.462a62.432 62.432 0 0 0-1.27 4.77c-.311 1.408-.451 2.387-.623 3.422-.172 1.034-.375 2.125-.52 3.268-.147 1.142-.236 2.335-.312 3.306-.077.97-.14 1.72-.204 2.468M218.656 146.07l-74.914 20.957M134.594 169.387l-4.88 1.447M84.91 183.115l11.267-2.423M66.42 165.939l17.089-3.877M96.177 160.5l8.032-1.238M139.092 149.284l75.79-20.767.885 1.445 1.525 3.35 1.41 4.208.42 2.874-.096 3.446-.37 2.23M26.906 192.323l20.269-3.877M21.73 175.9l27.493-6.138M26.906 192.323l-26.523-1.67L21.73 175.9s5.202 16.1 5.176 16.423z" stroke="#000"/><path d="M9.817 191.084c.036-.458.072-.916.04-1.521-.031-.605-.13-1.36-.287-1.997a6.765 6.765 0 0 0-.571-1.53 4.777 4.777 0 0 0-.557-.82M52.105 136.301c.47.19 1.013.185 1.48-.012a1.955 1.955 0 0 0 1.036-1.054 1.951 1.951 0 0 0-.013-1.477 1.955 1.955 0 0 0-1.054-1.036 1.958 1.958 0 0 0-1.48.013 1.955 1.955 0 0 0-1.036 1.054 1.951 1.951 0 0 0 .012 1.477c.198.465.586.846 1.055 1.035zM57.709 134.36a1.368 1.368 0 0 0-1.032.064c-.317.155-.569.44-.684.773-.114.334-.09.713.064 1.03.156.318.44.569.775.684.334.114.714.09 1.031-.064.318-.155.57-.44.684-.774a1.363 1.363 0 0 0-.064-1.03 1.366 1.366 0 0 0-.774-.683zM50.542 140.87a1.875 1.875 0 0 0-1.335.474 1.87 1.87 0 0 0-.609 1.278c-.025.483.15.974.474 1.333.325.36.796.583 1.28.608.484.025.975-.149 1.335-.473a1.87 1.87 0 0 0 .609-1.278 1.87 1.87 0 0 0-.474-1.334 1.874 1.874 0 0 0-1.28-.608zM55.574 140.756c-.404.02-.798.206-1.07.505-.271.3-.418.71-.398 1.113.02.404.207.797.506 1.068.3.272.71.418 1.114.398.405-.02.798-.206 1.07-.506.271-.3.418-.708.398-1.112a1.562 1.562 0 0 0-.506-1.068c-.3-.272-.71-.418-1.114-.398zM86.743 145.855a1.831 1.831 0 0 1 .273-1.359c.265-.394.69-.676 1.156-.768.465-.091.966.01 1.36.273.395.264.677.689.77 1.154.09.465-.01.965-.274 1.36-.265.393-.69.675-1.155.767a1.837 1.837 0 0 1-1.361-.273 1.833 1.833 0 0 1-.769-1.154zM83.886 146.394c-.127-.5-.46-.946-.903-1.21a2 2 0 0 0-1.496-.217 1.998 1.998 0 0 0-1.21.902 1.994 1.994 0 0 0-.218 1.494c.127.5.46.945.903 1.21a2 2 0 0 0 1.496.217 1.998 1.998 0 0 0 1.21-.903c.265-.443.345-.993.218-1.493zM79.034 155.386a1.83 1.83 0 0 1 .434-1.315c.31-.36.765-.589 1.238-.624.472-.035.957.124 1.316.433.36.31.589.764.624 1.236a1.83 1.83 0 0 1-.433 1.315c-.31.359-.765.588-1.238.624a1.834 1.834 0 0 1-1.316-.433 1.83 1.83 0 0 1-.625-1.236zM85.032 154.848c0 .394.163.787.442 1.066.122.121.308.118.464.192l1.16-2.535c-.189-.082-.35-.232-.557-.232-.396 0-.787.163-1.067.442-.28.28-.442.672-.442 1.067zM52.204 158.527c-.23.193-.477.386-.567.672-.125.394-.087.837.104 1.204.19.366.531.652.926.776.162.051.325-.04.495-.043l.048-.087c.213-.386.43-.77.668-1.142.207-.324.43-.64.59-.99l.01-.024c-.196-.33-.493-.606-.86-.721-.25-.08-.507.017-.766.066l-.117.06c-.173.086-.354.153-.53.229zM77.687 37.305c.409.29.697.745.781 1.238a1.934 1.934 0 0 1-.323 1.428c-.29.408-.745.696-1.24.78a1.94 1.94 0 0 1-1.429-.323 1.935 1.935 0 0 1-.781-1.238 1.934 1.934 0 0 1 .323-1.427c.29-.409.746-.696 1.24-.78a1.94 1.94 0 0 1 1.429.322zM72.781 38.975c.402.38.645.924.66 1.477a2.138 2.138 0 0 1-.58 1.51 2.143 2.143 0 0 1-1.478.66 2.143 2.143 0 0 1-1.513-.578 2.138 2.138 0 0 1-.66-1.478 2.138 2.138 0 0 1 .58-1.51 2.143 2.143 0 0 1 1.478-.66 2.143 2.143 0 0 1 1.513.579zM76.339 42.313a2.064 2.064 0 0 0-1.507-.403 2.063 2.063 0 0 0-1.35.78 2.058 2.058 0 0 0-.403 1.505 2.06 2.06 0 0 0 .78 1.348c.424.325.978.473 1.507.403a2.063 2.063 0 0 0 1.35-.78c.325-.422.473-.976.403-1.504a2.06 2.06 0 0 0-.78-1.35zM68.199 42.959c.395.409.62.978.61 1.546a2.196 2.196 0 0 1-.664 1.523 2.2 2.2 0 0 1-1.548.609 2.2 2.2 0 0 1-1.525-.663 2.195 2.195 0 0 1-.61-1.545c.01-.569.255-1.13.664-1.524a2.2 2.2 0 0 1 1.548-.609 2.2 2.2 0 0 1 1.525.663zM72.673 46.836a2.165 2.165 0 0 0-1.543-.544c-.558.03-1.102.29-1.476.705a2.16 2.16 0 0 0-.544 1.541c.03.559.29 1.101.706 1.475.416.373.984.573 1.543.543a2.164 2.164 0 0 0 1.476-.705 2.16 2.16 0 0 0 .544-1.541 2.16 2.16 0 0 0-.706-1.474zM63.617 47.32a1.95 1.95 0 0 0-1.367-.55 1.95 1.95 0 0 0-1.356.577c-.352.36-.555.862-.55 1.365.005.504.217 1.002.577 1.354.36.353.863.555 1.367.55a1.95 1.95 0 0 0 1.356-.577c.353-.359.555-.861.55-1.365a1.945 1.945 0 0 0-.577-1.354zM68.468 51.09a2.123 2.123 0 0 0-1.47-.64 2.124 2.124 0 0 0-1.494.586c-.396.38-.631.92-.641 1.47-.01.547.206 1.096.587 1.491.38.395.922.63 1.47.64a2.123 2.123 0 0 0 1.495-.586c.395-.38.63-.921.64-1.47a2.118 2.118 0 0 0-.587-1.492zM59.142 50.982c.43.444.676 1.062.666 1.68a2.388 2.388 0 0 1-.72 1.658 2.394 2.394 0 0 1-1.682.665 2.394 2.394 0 0 1-1.66-.719 2.388 2.388 0 0 1-.665-1.68c.01-.618.275-1.228.72-1.658a2.394 2.394 0 0 1 1.681-.665c.62.01 1.23.275 1.66.719zM63.563 55.074a2.123 2.123 0 0 0-1.483-.613c-.548 0-1.094.225-1.482.613a2.118 2.118 0 0 0-.614 1.48c0 .549.226 1.094.614 1.481.388.388.934.614 1.482.614.55 0 1.095-.226 1.483-.614.388-.387.614-.932.614-1.48 0-.549-.226-1.093-.614-1.481zM54.021 55.558a2.413 2.413 0 0 0-1.69-.683 2.413 2.413 0 0 0-1.68.71 2.407 2.407 0 0 0-.683 1.689c.005.623.266 1.24.71 1.677a2.413 2.413 0 0 0 1.691.683 2.413 2.413 0 0 0 1.68-.71c.437-.444.688-1.065.683-1.688a2.407 2.407 0 0 0-.71-1.678zM58.118 59.543a2.355 2.355 0 0 0-1.644-.68c-.609 0-1.214.25-1.644.68a2.35 2.35 0 0 0-.681 1.642c0 .608.25 1.213.68 1.642.431.43 1.036.68 1.645.68s1.214-.25 1.644-.68a2.35 2.35 0 0 0 .681-1.642 2.35 2.35 0 0 0-.68-1.642zM48.523 60.781a2.37 2.37 0 0 1 .619 1.684 2.37 2.37 0 0 1-.754 1.628 2.376 2.376 0 0 1-1.686.618 2.376 2.376 0 0 1-1.63-.753 2.37 2.37 0 0 1-.619-1.683 2.37 2.37 0 0 1 .754-1.628 2.376 2.376 0 0 1 1.686-.619 2.376 2.376 0 0 1 1.63.753zM52.835 65.035a2.375 2.375 0 0 0-1.674-.645 2.375 2.375 0 0 0-1.641.726 2.369 2.369 0 0 0-.646 1.672 2.37 2.37 0 0 0 .727 1.64c.444.422 1.06.66 1.674.645a2.375 2.375 0 0 0 1.641-.727c.423-.444.661-1.059.646-1.672a2.37 2.37 0 0 0-.727-1.639zM42.97 65.735A2.684 2.684 0 0 0 41.08 65a2.683 2.683 0 0 0-1.857.816c-.48.5-.75 1.195-.735 1.888.015.692.315 1.375.816 1.854.501.48 1.197.75 1.89.735a2.683 2.683 0 0 0 1.857-.816c.48-.5.75-1.195.735-1.888a2.677 2.677 0 0 0-.816-1.854zM47.067 70.258a2.49 2.49 0 0 1 .599 1.787 2.49 2.49 0 0 1-.842 1.686 2.496 2.496 0 0 1-1.788.598 2.495 2.495 0 0 1-1.689-.84 2.49 2.49 0 0 1-.598-1.787 2.49 2.49 0 0 1 .841-1.686 2.496 2.496 0 0 1 1.789-.598 2.495 2.495 0 0 1 1.688.84zM67.606 59.22a2.008 2.008 0 0 0-1.39-.607 2.008 2.008 0 0 0-1.413.553c-.374.36-.598.87-.608 1.389-.01.518.194 1.037.554 1.41.36.375.871.598 1.39.608a2.008 2.008 0 0 0 1.413-.553c.374-.36.598-.87.608-1.389a2.003 2.003 0 0 0-.554-1.411zM62.43 63.797a2.163 2.163 0 0 0-1.486-.679 2.163 2.163 0 0 0-1.532.571c-.41.38-.66.927-.68 1.485-.02.558.191 1.121.572 1.53.381.409.928.659 1.487.679.56.02 1.123-.19 1.532-.571.41-.38.66-.927.68-1.485a2.158 2.158 0 0 0-.572-1.53zM40.544 60.62a2.384 2.384 0 0 0 1.72.538 2.383 2.383 0 0 0 1.596-.834 2.377 2.377 0 0 0 .538-1.717 2.378 2.378 0 0 0-.835-1.595 2.384 2.384 0 0 0-1.719-.537 2.383 2.383 0 0 0-1.596.833 2.377 2.377 0 0 0-.539 1.717c.055.613.362 1.2.835 1.595zM45.989 54.805c.381.338.9.518 1.408.488a1.972 1.972 0 0 0 1.341-.65c.339-.38.519-.898.489-1.406a1.968 1.968 0 0 0-.65-1.34 1.972 1.972 0 0 0-1.409-.488 1.972 1.972 0 0 0-1.34.65c-.34.38-.52.898-.49 1.406.03.508.27 1.001.65 1.34zM51.272 50.066c.416.388.99.602 1.559.582a2.201 2.201 0 0 0 1.514-.69c.388-.415.602-.988.582-1.556a2.197 2.197 0 0 0-.69-1.512 2.202 2.202 0 0 0-1.559-.582 2.201 2.201 0 0 0-1.514.69 2.196 2.196 0 0 0-.582 1.556c.02.568.274 1.125.69 1.512zM56.663 45.651c.303.303.73.48 1.159.48.429 0 .855-.177 1.159-.48.303-.303.48-.729.48-1.157 0-.43-.177-.855-.48-1.158a1.66 1.66 0 0 0-1.16-.48c-.428 0-.855.177-1.158.48-.304.303-.48.729-.48 1.158 0 .428.176.854.48 1.157zM69.493 56.635c.338.318.806.493 1.27.479.464-.015.919-.221 1.236-.56.318-.338.494-.804.48-1.268a1.792 1.792 0 0 0-.56-1.235 1.796 1.796 0 0 0-1.27-.478c-.465.015-.92.22-1.237.559a1.792 1.792 0 0 0-.479 1.268c.015.464.221.918.56 1.235zM101.73 149.893c.045.353.236.684.518.901.282.217.652.316 1.004.27.353-.045.685-.236.902-.517.217-.282.317-.651.271-1.004a1.373 1.373 0 0 0-.519-.9 1.377 1.377 0 0 0-1.004-.27 1.376 1.376 0 0 0-.902.517c-.217.282-.316.651-.27 1.003zM102.134 156.462c.032.293.184.57.413.755.23.184.534.273.827.242a1.14 1.14 0 0 0 .755-.413c.185-.23.274-.533.242-.826a1.137 1.137 0 0 0-.413-.754 1.14 1.14 0 0 0-.827-.242 1.14 1.14 0 0 0-.755.413c-.185.23-.274.533-.242.825z" stroke="#000"/></g></g></svg>